<?xml version="1.0" standalone="no"?>
<!DOCTYPE svg PUBLIC "-//W3C//DTD SVG 20010904//EN"
 "http://www.w3.org/TR/2001/REC-SVG-20010904/DTD/svg10.dtd">
<svg version="1.0" xmlns="http://www.w3.org/2000/svg"
 width="700.000000pt" height="700.000000pt" viewBox="0 0 700.000000 700.000000"
 preserveAspectRatio="xMidYMid meet">
<metadata>
Created by potrace 1.14, written by Peter Selinger 2001-2017
</metadata>
<g transform="translate(0.000000,700.000000) scale(0.100000,-0.100000)"
fill="#000000" stroke="none">
<path d="M3380 6981 c-122 -39 -220 -106 -323 -220 -172 -190 -333 -500 -452
-871 -40 -125 -116 -417 -136 -518 -9 -51 -15 -63 -28 -59 -227 70 -301 92
-394 116 -111 29 -277 65 -353 76 -22 4 -50 8 -64 10 -132 22 -190 26 -355 30
-141 2 -249 -6 -380 -29 -119 -21 -271 -96 -349 -171 -90 -88 -132 -188 -135
-326 -3 -127 41 -306 108 -436 17 -35 18 -40 4 -58 -29 -38 -72 -140 -79 -185
-17 -129 10 -240 85 -340 43 -57 82 -88 159 -127 66 -33 80 -36 170 -39 65 -2
110 2 137 11 l41 14 134 -132 c74 -73 159 -154 189 -180 l54 -48 -54 -47 c-61
-53 -359 -349 -404 -402 -17 -19 -53 -62 -81 -95 -399 -469 -551 -914 -409
-1195 48 -94 156 -179 310 -242 39 -16 181 -47 250 -55 130 -14 376 -9 535 12
98 13 277 44 325 57 22 5 49 12 60 14 18 3 69 16 230 59 33 8 109 32 168 51
60 20 110 34 111 33 2 -2 19 -77 40 -166 20 -89 52 -213 70 -275 l34 -113 -52
-50 c-62 -61 -98 -120 -121 -199 -57 -196 29 -403 209 -502 86 -47 204 -66
294 -46 40 10 43 9 64 -22 94 -133 255 -258 381 -298 51 -15 168 -19 222 -7
178 41 361 202 516 455 165 271 317 684 410 1119 11 55 22 101 24 103 2 2 45
-10 97 -27 141 -46 292 -88 435 -120 125 -28 155 -34 238 -47 22 -3 47 -8 55
-9 17 -3 94 -14 155 -21 104 -12 367 -11 465 2 412 55 615 248 597 569 -7 132
-42 247 -122 410 -91 186 -222 378 -389 570 -75 86 -350 363 -429 432 l-58 50
58 54 c179 167 386 382 508 530 208 250 374 555 421 768 14 63 16 221 4 273
-64 271 -343 420 -802 428 -20 0 -32 8 -43 31 -61 117 -209 206 -355 213 -204
10 -397 -130 -442 -322 l-12 -50 -86 -23 c-47 -12 -130 -37 -185 -55 -55 -19
-103 -34 -106 -34 -4 0 -12 28 -18 63 -64 330 -217 785 -349 1037 -45 84 -142
241 -165 265 -7 7 -39 44 -72 82 -91 105 -214 192 -318 225 -61 19 -188 18
-247 -1z m245 -232 c63 -29 195 -160 256 -254 161 -247 300 -613 404 -1065 13
-58 26 -117 29 -133 3 -15 7 -36 11 -46 5 -16 -13 -26 -127 -71 -142 -57 -464
-198 -563 -248 -136 -68 -131 -66 -172 -47 -21 10 -92 44 -158 75 -135 65
-367 165 -528 230 -84 33 -106 46 -103 59 5 13 19 76 41 185 45 213 161 579
234 740 16 34 38 83 50 109 31 68 112 202 160 267 86 115 166 182 259 217 51
19 146 11 207 -18z m-2160 -1433 c35 -5 205 -33 250 -42 35 -6 237 -53 280
-65 17 -4 41 -11 55 -14 14 -4 100 -30 193 -58 187 -56 174 -44 157 -152 -5
-33 -12 -80 -15 -105 -3 -25 -8 -56 -10 -70 -2 -14 -7 -52 -11 -85 -3 -33 -7
-71 -9 -85 -1 -14 -6 -59 -9 -100 -4 -41 -9 -88 -11 -105 -2 -16 -7 -75 -10
-130 -3 -55 -8 -107 -11 -115 -3 -8 -39 -37 -82 -65 -149 -97 -337 -234 -525
-383 l-118 -93 -55 47 c-31 26 -113 102 -184 170 l-128 124 41 81 c39 76 42
85 44 180 1 54 -1 109 -6 122 -57 148 -90 191 -198 263 -91 60 -242 83 -344
51 l-47 -14 -21 46 c-45 100 -65 184 -65 271 0 75 4 92 29 139 16 29 42 64 58
77 62 52 180 98 282 110 28 4 52 8 55 11 5 5 372 -5 415 -11z m4560 0 c80 -15
195 -60 241 -94 113 -86 139 -230 74 -422 -26 -78 -90 -207 -141 -283 -22 -32
-39 -60 -39 -63 0 -9 -159 -212 -233 -297 -89 -103 -385 -399 -464 -465 l-51
-42 -99 77 c-54 43 -103 82 -109 88 -6 5 -22 17 -34 25 -13 8 -35 24 -49 36
-38 30 -263 190 -359 254 -79 53 -82 56 -83 95 -1 22 -2 54 -4 70 -1 17 -5 74
-9 128 -4 54 -9 104 -11 110 -2 7 -6 46 -9 87 -4 41 -8 86 -11 100 -2 14 -6
45 -9 70 -14 128 -19 166 -22 171 -2 3 -6 33 -9 66 l-7 60 39 11 c21 6 97 29
168 51 72 23 137 41 145 41 8 0 26 -20 39 -45 31 -59 114 -141 171 -170 173
-87 370 -62 503 64 75 70 133 180 139 264 l2 30 101 -6 c55 -3 114 -8 130 -11z
m-3269 -360 c224 -90 501 -213 493 -220 -2 -1 -44 -25 -94 -51 -49 -26 -148
-82 -220 -123 -71 -42 -152 -89 -180 -104 -27 -16 -81 -49 -120 -73 -38 -25
-74 -45 -78 -45 -5 0 -6 24 -3 53 3 28 8 79 11 112 3 33 8 76 10 95 3 19 7 58
10 85 4 28 8 61 10 75 7 48 16 109 19 137 8 60 19 103 25 103 4 0 56 -20 117
-44z m1618 17 c3 -16 8 -48 11 -73 4 -25 8 -56 10 -70 5 -36 14 -104 19 -147
3 -21 8 -60 11 -88 3 -27 8 -70 10 -95 2 -25 7 -71 10 -102 4 -32 4 -58 1 -58
-3 0 -75 41 -158 92 -84 50 -240 140 -347 200 l-194 108 94 43 c81 38 274 120
454 195 66 27 73 27 79 -5z m-772 -407 c269 -140 753 -422 846 -494 21 -16 22
-26 29 -197 14 -388 3 -919 -19 -941 -41 -39 -595 -365 -831 -488 l-127 -66
-128 67 c-233 122 -730 413 -820 481 -21 16 -23 26 -29 182 -14 379 -3 935 19
956 40 36 526 325 728 432 63 33 140 75 170 91 30 17 56 31 57 31 1 0 48 -24
105 -54z m-1299 -683 c-6 -48 -5 -762 2 -773 15 -24 -19 -5 -126 72 -151 107
-409 308 -409 318 0 4 17 20 38 36 20 15 39 31 42 34 14 17 445 338 456 340 1
0 0 -12 -3 -27z m2483 -39 c97 -70 366 -273 414 -313 35 -30 35 -30 15 -48
-96 -88 -503 -385 -517 -377 -5 3 -6 14 -3 25 7 20 8 694 1 742 -2 15 0 27 4
27 4 0 43 -25 86 -56z m-3124 -552 c186 -147 477 -359 601 -437 26 -17 49 -37
52 -45 2 -8 7 -55 10 -105 8 -130 15 -206 20 -240 2 -16 7 -59 10 -94 3 -36 8
-79 10 -95 2 -17 7 -53 10 -81 11 -90 15 -120 20 -145 3 -14 8 -50 11 -80 l6
-56 -118 -37 c-334 -103 -631 -171 -859 -195 -90 -9 -375 -9 -440 0 -171 25
-293 95 -345 198 -29 56 -32 174 -6 269 50 189 220 460 461 731 93 105 467
470 482 470 1 0 35 -26 75 -58z m3848 -27 c88 -79 340 -333 408 -411 169 -193
288 -365 367 -529 183 -378 91 -582 -290 -644 -61 -10 -391 -7 -455 4 -19 3
-80 13 -135 21 -55 9 -113 18 -130 21 -109 18 -561 141 -667 182 -24 9 -26 13
-18 48 5 21 11 58 14 83 3 25 8 54 10 65 2 11 7 49 11 85 3 36 8 79 11 95 2
17 6 55 9 85 3 30 7 69 10 85 2 17 7 71 10 120 4 50 8 110 10 135 2 25 4 59 5
75 0 30 16 43 214 175 51 34 397 289 406 300 3 3 29 25 59 48 62 48 45 53 151
-43z m-2849 -665 c46 -28 91 -55 99 -60 64 -39 331 -191 400 -228 47 -25 87
-46 89 -48 6 -5 -193 -96 -359 -166 -154 -64 -251 -100 -256 -95 -4 4 -16 70
-29 167 -3 25 -8 56 -10 70 -2 14 -7 48 -10 75 -3 28 -7 66 -10 85 -2 19 -7
60 -9 90 -3 30 -8 81 -11 114 -7 69 -12 69 106 -4z m1784 -2 c-3 -35 -8 -79
-10 -98 -4 -35 -11 -95 -20 -179 -4 -44 -12 -103 -20 -151 -2 -14 -7 -45 -10
-70 -8 -67 -16 -100 -24 -100 -21 0 -471 190 -575 242 l-38 20 98 54 c54 30
100 54 102 54 2 0 29 15 60 34 250 150 426 252 440 255 2 1 0 -27 -3 -61z
m-783 -542 c187 -90 339 -157 525 -231 127 -51 141 -59 137 -78 -41 -222 -171
-682 -227 -808 -8 -19 -22 -52 -30 -74 -75 -199 -218 -430 -332 -533 -89 -81
-144 -107 -235 -106 -103 0 -152 25 -264 137 l-89 88 25 27 c113 121 139 319
64 476 -70 145 -217 241 -376 248 -47 2 -53 8 -69 68 -43 165 -100 401 -105
431 -3 20 -8 43 -11 51 -5 12 24 27 127 68 73 29 151 61 173 70 190 84 349
157 423 194 48 25 92 45 99 45 6 1 80 -32 165 -73z"/>
<path d="M3400 4148 c-76 -11 -113 -24 -200 -66 -105 -52 -231 -178 -282 -282
-129 -262 -84 -557 116 -760 314 -320 858 -231 1055 172 45 93 64 179 64 288
0 112 -19 191 -70 298 -51 106 -176 232 -283 284 -129 63 -267 86 -400 66z"/>
</g>
</svg>
