<svg width="208" height="116" viewBox="0 0 208 116" fill="none" xmlns="http://www.w3.org/2000/svg">
<line x1="15.4069" y1="16.4822" x2="15.4069" y2="115.778" stroke="#46464F" stroke-width="0.356867"/>
<line x1="183.847" y1="16.4822" x2="183.847" y2="115.778" stroke="#46464F" stroke-width="0.356867"/>
<line x1="0.354248" y1="27.5601" x2="198.543" y2="27.5601" stroke="#46464F" stroke-width="0.356867"/>
<rect x="30.9067" y="40.2007" width="53.0648" height="67.135" rx="1.42747" fill="#46464F"/>
<rect x="114.926" y="40.2007" width="53.0648" height="67.135" rx="1.42747" fill="#46464F"/>
<line x1="30.9067" y1="48.4641" x2="83.9715" y2="48.4641" stroke="#46464F" stroke-width="0.356867"/>
<line x1="114.926" y1="48.4641" x2="167.991" y2="48.4641" stroke="#46464F" stroke-width="0.356867"/>
<line x1="99.4262" y1="12.0601" x2="99.4262" y2="115.778" stroke="#46464F" stroke-width="0.356867"/>
<path d="M48.57 34.9543H49.6954C50.4314 34.9543 50.7355 34.5955 50.7355 34.1271C50.7355 33.6343 50.3949 33.3667 50.109 33.3484V33.318C50.3767 33.245 50.6139 33.0686 50.6139 32.6672C50.6139 32.2109 50.3097 31.8399 49.6589 31.8399H48.57V34.9543ZM48.9472 34.6198V33.537H49.7136C50.1212 33.537 50.3767 33.8107 50.3767 34.1271C50.3767 34.4008 50.1881 34.6198 49.6954 34.6198H48.9472ZM48.9472 33.2085V32.1744H49.6589C50.0725 32.1744 50.255 32.3934 50.255 32.6672C50.255 32.9956 49.9873 33.2085 49.6467 33.2085H48.9472ZM51.3553 34.9543H53.2592V34.6198H51.7324V33.5613H53.1376V33.2268H51.7324V32.1744H53.2349V31.8399H51.3553V34.9543ZM53.9147 34.9543H54.2918V33.5613H55.6422V33.2268H54.2918V32.1744H55.7821V31.8399H53.9147V34.9543ZM59.0559 33.3971C59.0559 32.4117 58.478 31.7973 57.6812 31.7973C56.8843 31.7973 56.3064 32.4117 56.3064 33.3971C56.3064 34.3825 56.8843 34.9969 57.6812 34.9969C58.478 34.9969 59.0559 34.3825 59.0559 33.3971ZM58.6909 33.3971C58.6909 34.2061 58.2469 34.6441 57.6812 34.6441C57.1154 34.6441 56.6714 34.2061 56.6714 33.3971C56.6714 32.5881 57.1154 32.1501 57.6812 32.1501C58.2469 32.1501 58.6909 32.5881 58.6909 33.3971ZM59.69 34.9543H60.0672V33.7378H60.7485C60.7759 33.7378 60.8017 33.7378 60.8276 33.7362L61.4845 34.9543H61.9225L61.2184 33.6678C61.6153 33.5325 61.8008 33.2085 61.8008 32.7949C61.8008 32.2444 61.4724 31.8399 60.7424 31.8399H59.69V34.9543ZM60.0672 33.3971V32.1744H60.7302C61.2351 32.1744 61.4298 32.4208 61.4298 32.7949C61.4298 33.169 61.2351 33.3971 60.7363 33.3971H60.0672ZM62.4293 34.9543H64.3332V34.6198H62.8064V33.5613H64.2116V33.2268H62.8064V32.1744H64.3089V31.8399H62.4293V34.9543Z" fill="#787882"/>
<path d="M134.325 34.9543L134.638 34.0723H135.897L136.211 34.9543H136.606L135.462 31.8399H135.073L133.93 34.9543H134.325ZM134.757 33.7378L135.256 32.3326H135.28L135.779 33.7378H134.757ZM137.091 34.9543H137.468V33.5613H138.819V33.2268H137.468V32.1744H138.959V31.8399H137.091V34.9543ZM139.434 32.1744H140.414V34.9543H140.791V32.1744H141.77V31.8399H139.434V32.1744ZM142.352 34.9543H144.256V34.6198H142.729V33.5613H144.134V33.2268H142.729V32.1744H144.232V31.8399H142.352V34.9543ZM144.912 34.9543H145.289V33.7378H145.97C145.997 33.7378 146.023 33.7378 146.049 33.7362L146.706 34.9543H147.144L146.44 33.6678C146.837 33.5325 147.022 33.2085 147.022 32.7949C147.022 32.2444 146.694 31.8399 145.964 31.8399H144.912V34.9543ZM145.289 33.3971V32.1744H145.952C146.457 32.1744 146.651 32.4208 146.651 32.7949C146.651 33.169 146.457 33.3971 145.958 33.3971H145.289Z" fill="#787882"/>
<g opacity="0.12">
<rect x="108.36" y="63.3836" width="66.1956" height="9.51273" rx="1.96277" stroke="#3C93FF" stroke-width="1.0706"/>
<rect x="108.36" y="63.3836" width="66.1956" height="9.51273" rx="1.96277" stroke="#3C93FF" stroke-width="1.0706"/>
</g>
<g opacity="0.12">
<rect x="108.36" y="80.2679" width="66.1956" height="9.51273" rx="1.96277" stroke="#3C93FF" stroke-width="1.0706"/>
<rect x="108.36" y="80.2679" width="66.1956" height="9.51273" rx="1.96277" stroke="#3C93FF" stroke-width="1.0706"/>
</g>
<rect x="109.253" y="64.2758" width="64.4112" height="7.72839" rx="1.0706" stroke="#3C93FF" stroke-width="0.713734"/>
<rect x="109.253" y="64.2758" width="64.4112" height="7.72839" rx="1.0706" stroke="#3C93FF" stroke-width="0.713734"/>
<rect x="109.253" y="81.1601" width="64.4112" height="7.72839" rx="1.0706" stroke="#3C93FF" stroke-width="0.713734"/>
<rect x="109.253" y="81.1601" width="64.4112" height="7.72839" rx="1.0706" stroke="#3C93FF" stroke-width="0.713734"/>
<g opacity="0.3" filter="url(#filter0_b)">
<rect x="103.268" width="92.7854" height="21.6499" rx="4.94856" fill="#3C93FF"/>
</g>
<path d="M108.652 9.94849H109.953C110.803 9.94849 111.155 9.53376 111.155 8.99251C111.155 8.42315 110.761 8.11386 110.431 8.09278V8.05763C110.74 7.97328 111.014 7.76943 111.014 7.30551C111.014 6.77832 110.662 6.34954 109.91 6.34954H108.652V9.94849ZM109.088 9.56188V8.31068H109.974C110.445 8.31068 110.74 8.627 110.74 8.99251C110.74 9.30883 110.522 9.56188 109.953 9.56188H109.088ZM109.088 7.93111V6.73614H109.91C110.388 6.73614 110.599 6.98919 110.599 7.30551C110.599 7.68508 110.29 7.93111 109.896 7.93111H109.088ZM112.081 10.9607C112.456 10.9607 112.719 10.7621 112.876 10.3421L114.025 7.2563L113.572 7.24927L112.827 9.40021H112.798L112.053 7.24927H111.604L112.602 9.96254L112.524 10.1734C112.373 10.5846 112.187 10.6233 111.885 10.546L111.779 10.9115C111.821 10.9326 111.941 10.9607 112.081 10.9607ZM115.966 9.94849H116.38V8.26148C116.38 7.86609 116.668 7.58667 116.992 7.58667C117.306 7.58667 117.526 7.79228 117.526 8.09981V9.94849H117.948V8.19119C117.948 7.84324 118.166 7.58667 118.545 7.58667C118.841 7.58667 119.094 7.74307 119.094 8.14198V9.94849H119.508V8.14198C119.508 7.5076 119.167 7.21413 118.686 7.21413C118.299 7.21413 118.016 7.39161 117.878 7.67103H117.849C117.716 7.38283 117.48 7.21413 117.125 7.21413C116.774 7.21413 116.514 7.38283 116.401 7.67103H116.366V7.24927H115.966V9.94849ZM121.363 10.0047C122.094 10.0047 122.586 9.44941 122.586 8.61294C122.586 7.76943 122.094 7.21413 121.363 7.21413C120.632 7.21413 120.14 7.76943 120.14 8.61294C120.14 9.44941 120.632 10.0047 121.363 10.0047ZM121.363 9.63217C120.808 9.63217 120.555 9.15419 120.555 8.61294C120.555 8.07169 120.808 7.58667 121.363 7.58667C121.918 7.58667 122.171 8.07169 122.171 8.61294C122.171 9.15419 121.918 9.63217 121.363 9.63217ZM124.238 10.0047C124.759 10.0047 124.934 9.68138 125.026 9.53376H125.075V9.94849H125.476V6.34954H125.061V7.67805H125.026C124.934 7.53747 124.773 7.21413 124.246 7.21413C123.564 7.21413 123.093 7.75538 123.093 8.60591C123.093 9.46347 123.564 10.0047 124.238 10.0047ZM124.295 9.63217C123.775 9.63217 123.507 9.17527 123.507 8.59888C123.507 8.02951 123.768 7.58667 124.295 7.58667C124.801 7.58667 125.068 7.99437 125.068 8.59888C125.068 9.21042 124.794 9.63217 124.295 9.63217ZM126.293 9.94849H126.708V7.24927H126.293V9.94849ZM126.504 6.7994C126.665 6.7994 126.799 6.67288 126.799 6.51824C126.799 6.36359 126.665 6.23707 126.504 6.23707C126.342 6.23707 126.208 6.36359 126.208 6.51824C126.208 6.67288 126.342 6.7994 126.504 6.7994ZM128.669 7.24927H128.065V6.97513C128.065 6.70802 128.177 6.56744 128.451 6.56744C128.571 6.56744 128.641 6.59556 128.683 6.60962L128.803 6.25113C128.739 6.22301 128.613 6.18083 128.409 6.18083C128.022 6.18083 127.65 6.4128 127.65 6.87673V7.24927H127.214V7.60073H127.65V9.94849H128.065V7.60073H128.669V7.24927ZM129.517 10.9607C129.892 10.9607 130.155 10.7621 130.312 10.3421L131.461 7.2563L131.008 7.24927L130.263 9.40021H130.234L129.489 7.24927H129.039L130.038 9.96254L129.96 10.1734C129.809 10.5846 129.623 10.6233 129.321 10.546L129.215 10.9115C129.257 10.9326 129.377 10.9607 129.517 10.9607ZM132.01 9.94849H132.424V7.24927H132.01V9.94849ZM132.221 6.7994C132.382 6.7994 132.516 6.67288 132.516 6.51824C132.516 6.36359 132.382 6.23707 132.221 6.23707C132.059 6.23707 131.925 6.36359 131.925 6.51824C131.925 6.67288 132.059 6.7994 132.221 6.7994ZM133.599 8.32474C133.599 7.85378 133.89 7.58667 134.288 7.58667C134.672 7.58667 134.906 7.83797 134.906 8.26148V9.94849H135.321V8.23336C135.321 7.5445 134.954 7.21413 134.407 7.21413C133.999 7.21413 133.746 7.39689 133.62 7.67103H133.585V7.24927H133.184V9.94849H133.599V8.32474ZM137.168 11.0169C137.815 11.0169 138.335 10.7217 138.335 10.0258V7.24927H137.934V7.67805H137.892C137.801 7.53747 137.632 7.21413 137.105 7.21413C136.423 7.21413 135.952 7.75538 135.952 8.58482C135.952 9.42833 136.444 9.90631 137.098 9.90631C137.625 9.90631 137.794 9.59703 137.885 9.44941H137.92V9.99769C137.92 10.4476 137.604 10.6514 137.168 10.6514C136.678 10.6514 136.506 10.3931 136.395 10.2437L136.065 10.4757C136.233 10.7586 136.566 11.0169 137.168 11.0169ZM137.154 9.53376C136.634 9.53376 136.367 9.14013 136.367 8.57779C136.367 8.02951 136.627 7.58667 137.154 7.58667C137.66 7.58667 137.927 7.99437 137.927 8.57779C137.927 9.17527 137.653 9.53376 137.154 9.53376ZM141.66 7.24927H141.084V6.60259H140.669V7.24927H140.261V7.60073H140.669V9.28774C140.669 9.7587 141.048 9.98363 141.4 9.98363C141.554 9.98363 141.653 9.95552 141.709 9.93443L141.625 9.56188C141.59 9.56891 141.533 9.58297 141.442 9.58297C141.259 9.58297 141.084 9.52673 141.084 9.17527V7.60073H141.66V7.24927ZM142.756 8.32474C142.756 7.85378 143.057 7.58667 143.466 7.58667C143.857 7.58667 144.092 7.8327 144.092 8.26148V9.94849H144.507V8.23336C144.507 7.53923 144.138 7.21413 143.586 7.21413C143.161 7.21413 142.918 7.39161 142.792 7.67103H142.756V6.34954H142.342V9.94849H142.756V8.32474ZM145.265 9.94849H145.68V7.24927H145.265V9.94849ZM145.476 6.7994C145.638 6.7994 145.772 6.67288 145.772 6.51824C145.772 6.36359 145.638 6.23707 145.476 6.23707C145.315 6.23707 145.181 6.36359 145.181 6.51824C145.181 6.67288 145.315 6.7994 145.476 6.7994ZM148.352 7.85378C148.222 7.47069 147.93 7.21413 147.396 7.21413C146.826 7.21413 146.405 7.53747 146.405 7.99437C146.405 8.36692 146.626 8.61645 147.122 8.73243L147.571 8.83787C147.844 8.90114 147.972 9.03118 147.972 9.21745C147.972 9.44941 147.726 9.6392 147.34 9.6392C147 9.6392 146.788 9.49335 146.714 9.20339L146.32 9.3018C146.417 9.76046 146.795 10.0047 147.347 10.0047C147.974 10.0047 148.401 9.66205 148.401 9.19636C148.401 8.8203 148.165 8.58306 147.684 8.46532L147.283 8.36692C146.963 8.28784 146.819 8.18064 146.819 7.97328C146.819 7.74132 147.065 7.57262 147.396 7.57262C147.758 7.57262 147.907 7.77295 147.979 7.95922L148.352 7.85378ZM151.514 10.0047C152.111 10.0047 152.505 9.6392 152.575 9.16122H152.16C152.083 9.45644 151.837 9.63217 151.514 9.63217C151.022 9.63217 150.705 9.22448 150.705 8.59888C150.705 7.98734 151.029 7.58667 151.514 7.58667C151.879 7.58667 152.097 7.81161 152.16 8.05763H152.575C152.505 7.55153 152.076 7.21413 151.507 7.21413C150.775 7.21413 150.29 7.79052 150.29 8.61294C150.29 9.4213 150.754 10.0047 151.514 10.0047ZM154.278 10.0047C155.009 10.0047 155.501 9.44941 155.501 8.61294C155.501 7.76943 155.009 7.21413 154.278 7.21413C153.547 7.21413 153.055 7.76943 153.055 8.61294C153.055 9.44941 153.547 10.0047 154.278 10.0047ZM154.278 9.63217C153.722 9.63217 153.469 9.15419 153.469 8.61294C153.469 8.07169 153.722 7.58667 154.278 7.58667C154.833 7.58667 155.086 8.07169 155.086 8.61294C155.086 9.15419 154.833 9.63217 154.278 9.63217ZM156.134 9.94849H156.549V8.26148C156.549 7.86609 156.837 7.58667 157.16 7.58667C157.475 7.58667 157.694 7.79228 157.694 8.09981V9.94849H158.116V8.19119C158.116 7.84324 158.334 7.58667 158.714 7.58667C159.009 7.58667 159.262 7.74307 159.262 8.14198V9.94849H159.677V8.14198C159.677 7.5076 159.336 7.21413 158.854 7.21413C158.468 7.21413 158.185 7.39161 158.046 7.67103H158.018C157.884 7.38283 157.649 7.21413 157.294 7.21413C156.942 7.21413 156.682 7.38283 156.57 7.67103H156.535V7.24927H156.134V9.94849ZM160.435 10.9607H160.85V9.53376H160.885C160.976 9.68138 161.152 10.0047 161.672 10.0047C162.347 10.0047 162.818 9.46347 162.818 8.60591C162.818 7.75538 162.347 7.21413 161.665 7.21413C161.138 7.21413 160.976 7.53747 160.885 7.67805H160.836V7.24927H160.435V10.9607ZM160.843 8.59888C160.843 7.99437 161.11 7.58667 161.616 7.58667C162.143 7.58667 162.403 8.02951 162.403 8.59888C162.403 9.17527 162.136 9.63217 161.616 9.63217C161.117 9.63217 160.843 9.21042 160.843 8.59888ZM164.547 10.0047C165.278 10.0047 165.77 9.44941 165.77 8.61294C165.77 7.76943 165.278 7.21413 164.547 7.21413C163.816 7.21413 163.324 7.76943 163.324 8.61294C163.324 9.44941 163.816 10.0047 164.547 10.0047ZM164.547 9.63217C163.992 9.63217 163.739 9.15419 163.739 8.61294C163.739 8.07169 163.992 7.58667 164.547 7.58667C165.102 7.58667 165.355 8.07169 165.355 8.61294C165.355 9.15419 165.102 9.63217 164.547 9.63217ZM166.818 8.32474C166.818 7.85378 167.11 7.58667 167.507 7.58667C167.892 7.58667 168.125 7.83797 168.125 8.26148V9.94849H168.54V8.23336C168.54 7.5445 168.173 7.21413 167.626 7.21413C167.219 7.21413 166.965 7.39689 166.839 7.67103H166.804V7.24927H166.403V9.94849H166.818V8.32474ZM170.43 10.0047C170.978 10.0047 171.379 9.73058 171.505 9.32289L171.104 9.21042C170.999 9.49159 170.755 9.63217 170.43 9.63217C169.943 9.63217 169.607 9.31762 169.588 8.73946H171.547V8.56373C171.547 7.55856 170.95 7.21413 170.387 7.21413C169.656 7.21413 169.171 7.79052 169.171 8.61997C169.171 9.44941 169.649 10.0047 170.43 10.0047ZM169.588 8.38097C169.616 7.96098 169.913 7.58667 170.387 7.58667C170.837 7.58667 171.125 7.92408 171.125 8.38097H169.588ZM172.593 8.32474C172.593 7.85378 172.885 7.58667 173.282 7.58667C173.667 7.58667 173.9 7.83797 173.9 8.26148V9.94849H174.315V8.23336C174.315 7.5445 173.948 7.21413 173.401 7.21413C172.993 7.21413 172.74 7.39689 172.614 7.67103H172.579V7.24927H172.178V9.94849H172.593V8.32474ZM176.247 7.24927H175.67V6.60259H175.256V7.24927H174.848V7.60073H175.256V9.28774C175.256 9.7587 175.635 9.98363 175.987 9.98363C176.141 9.98363 176.24 9.95552 176.296 9.93443L176.212 9.56188C176.176 9.56891 176.12 9.58297 176.029 9.58297C175.846 9.58297 175.67 9.52673 175.67 9.17527V7.60073H176.247V7.24927ZM177.489 9.45644H177.039L177.018 9.65326C176.967 10.1295 176.867 10.604 176.821 10.8271H177.138C177.222 10.5881 177.401 10.0469 177.461 9.64623L177.489 9.45644ZM108.863 16.9607C109.237 16.9607 109.501 16.7621 109.657 16.3421L110.807 13.2563L110.353 13.2493L109.608 15.4002H109.58L108.835 13.2493H108.385L109.383 15.9625L109.306 16.1734C109.155 16.5846 108.968 16.6233 108.666 16.546L108.561 16.9115C108.603 16.9326 108.722 16.9607 108.863 16.9607ZM112.355 16.0047C113.086 16.0047 113.578 15.4494 113.578 14.6129C113.578 13.7694 113.086 13.2141 112.355 13.2141C111.624 13.2141 111.132 13.7694 111.132 14.6129C111.132 15.4494 111.624 16.0047 112.355 16.0047ZM112.355 15.6322C111.8 15.6322 111.547 15.1542 111.547 14.6129C111.547 14.0717 111.8 13.5867 112.355 13.5867C112.91 13.5867 113.164 14.0717 113.164 14.6129C113.164 15.1542 112.91 15.6322 112.355 15.6322ZM115.912 14.8449C115.912 15.351 115.526 15.583 115.217 15.583C114.872 15.583 114.626 15.3299 114.626 14.9363V13.2493H114.211V14.9644C114.211 15.6533 114.577 15.9836 115.083 15.9836C115.491 15.9836 115.758 15.7657 115.884 15.4916H115.912V15.9485H116.327V13.2493H115.912V14.8449ZM119.09 15.9485H119.498L120.088 13.8749H120.13L120.721 15.9485H121.129L121.951 13.2493H121.515L120.932 15.3088H120.904L120.334 13.2493H119.891L119.315 15.3159H119.287L118.703 13.2493H118.268L119.09 15.9485ZM122.499 15.9485H122.914V13.2493H122.499V15.9485ZM122.71 12.7994C122.872 12.7994 123.005 12.6729 123.005 12.5182C123.005 12.3636 122.872 12.2371 122.71 12.2371C122.548 12.2371 122.415 12.3636 122.415 12.5182C122.415 12.6729 122.548 12.7994 122.71 12.7994ZM124.088 12.3495H123.674V15.9485H124.088V12.3495ZM125.263 12.3495H124.848V15.9485H125.263V12.3495ZM127.414 15.9485H127.829V14.2615C127.829 13.8661 128.117 13.5867 128.44 13.5867C128.755 13.5867 128.974 13.7923 128.974 14.0998V15.9485H129.396V14.1912C129.396 13.8432 129.614 13.5867 129.994 13.5867C130.289 13.5867 130.542 13.7431 130.542 14.142V15.9485H130.957V14.142C130.957 13.5076 130.616 13.2141 130.134 13.2141C129.748 13.2141 129.465 13.3916 129.326 13.671H129.298C129.164 13.3828 128.929 13.2141 128.574 13.2141C128.222 13.2141 127.962 13.3828 127.85 13.671H127.815V13.2493H127.414V15.9485ZM132.811 16.0047C133.543 16.0047 134.035 15.4494 134.035 14.6129C134.035 13.7694 133.543 13.2141 132.811 13.2141C132.08 13.2141 131.588 13.7694 131.588 14.6129C131.588 15.4494 132.08 16.0047 132.811 16.0047ZM132.811 15.6322C132.256 15.6322 132.003 15.1542 132.003 14.6129C132.003 14.0717 132.256 13.5867 132.811 13.5867C133.367 13.5867 133.62 14.0717 133.62 14.6129C133.62 15.1542 133.367 15.6322 132.811 15.6322ZM135.687 16.0047C136.207 16.0047 136.383 15.6814 136.474 15.5338H136.523V15.9485H136.924V12.3495H136.509V13.6781H136.474C136.383 13.5375 136.221 13.2141 135.694 13.2141C135.012 13.2141 134.541 13.7554 134.541 14.6059C134.541 15.4635 135.012 16.0047 135.687 16.0047ZM135.743 15.6322C135.223 15.6322 134.956 15.1753 134.956 14.5989C134.956 14.0295 135.216 13.5867 135.743 13.5867C136.249 13.5867 136.516 13.9944 136.516 14.5989C136.516 15.2104 136.242 15.6322 135.743 15.6322ZM137.741 15.9485H138.156V13.2493H137.741V15.9485ZM137.952 12.7994C138.114 12.7994 138.247 12.6729 138.247 12.5182C138.247 12.3636 138.114 12.2371 137.952 12.2371C137.79 12.2371 137.657 12.3636 137.657 12.5182C137.657 12.6729 137.79 12.7994 137.952 12.7994ZM140.117 13.2493H139.513V12.9751C139.513 12.708 139.625 12.5674 139.9 12.5674C140.019 12.5674 140.089 12.5956 140.132 12.6096L140.251 12.2511C140.188 12.223 140.061 12.1808 139.857 12.1808C139.471 12.1808 139.098 12.4128 139.098 12.8767V13.2493H138.662V13.6007H139.098V15.9485H139.513V13.6007H140.117V13.2493ZM140.966 16.9607C141.34 16.9607 141.604 16.7621 141.76 16.3421L142.909 13.2563L142.456 13.2493L141.711 15.4002H141.683L140.938 13.2493H140.488L141.486 15.9625L141.409 16.1734C141.258 16.5846 141.071 16.6233 140.769 16.546L140.664 16.9115C140.706 16.9326 140.825 16.9607 140.966 16.9607ZM146.108 12.3495H145.672L144.773 12.947V13.3899L145.651 12.8064H145.672V15.9485H146.108V12.3495ZM148.296 15.9977C149.015 15.9977 149.515 15.5777 149.519 14.9925C149.515 14.5374 149.211 14.1508 148.823 14.0787V14.0576C149.161 13.9698 149.382 13.6394 149.385 13.2563C149.382 12.708 148.922 12.3003 148.296 12.3003C147.663 12.3003 147.203 12.708 147.206 13.2563C147.203 13.6394 147.424 13.9698 147.769 14.0576V14.0787C147.373 14.1508 147.069 14.5374 147.073 14.9925C147.069 15.5777 147.57 15.9977 148.296 15.9977ZM148.296 15.6111C147.802 15.6111 147.498 15.358 147.502 14.9714C147.498 14.5655 147.834 14.2755 148.296 14.2755C148.751 14.2755 149.087 14.5655 149.09 14.9714C149.087 15.358 148.783 15.6111 148.296 15.6111ZM148.296 13.903C147.902 13.903 147.625 13.657 147.628 13.2844C147.625 12.9189 147.892 12.6799 148.296 12.6799C148.693 12.6799 148.96 12.9189 148.964 13.2844C148.96 13.657 148.683 13.903 148.296 13.903ZM152.793 13.2493H152.189V12.9751C152.189 12.708 152.301 12.5674 152.575 12.5674C152.695 12.5674 152.765 12.5956 152.807 12.6096L152.927 12.2511C152.864 12.223 152.737 12.1808 152.533 12.1808C152.147 12.1808 151.774 12.4128 151.774 12.8767V13.2493H151.338V13.6007H151.774V15.9485H152.189V13.6007H152.793V13.2493ZM153.375 15.9485H153.789V13.2493H153.375V15.9485ZM153.585 12.7994C153.747 12.7994 153.881 12.6729 153.881 12.5182C153.881 12.3636 153.747 12.2371 153.585 12.2371C153.424 12.2371 153.29 12.3636 153.29 12.5182C153.29 12.6729 153.424 12.7994 153.585 12.7994ZM154.964 12.3495H154.549V15.9485H154.964V12.3495ZM156.855 16.0047C157.403 16.0047 157.804 15.7306 157.93 15.3229L157.53 15.2104C157.424 15.4916 157.18 15.6322 156.855 15.6322C156.368 15.6322 156.032 15.3176 156.013 14.7395H157.973V14.5637C157.973 13.5586 157.375 13.2141 156.813 13.2141C156.082 13.2141 155.597 13.7905 155.597 14.62C155.597 15.4494 156.075 16.0047 156.855 16.0047ZM156.013 14.381C156.041 13.961 156.338 13.5867 156.813 13.5867C157.263 13.5867 157.551 13.9241 157.551 14.381H156.013ZM160.515 13.8538C160.385 13.4707 160.094 13.2141 159.559 13.2141C158.99 13.2141 158.568 13.5375 158.568 13.9944C158.568 14.3669 158.79 14.6165 159.285 14.7324L159.735 14.8379C160.007 14.9011 160.136 15.0312 160.136 15.2174C160.136 15.4494 159.89 15.6392 159.503 15.6392C159.164 15.6392 158.951 15.4933 158.878 15.2034L158.484 15.3018C158.581 15.7605 158.958 16.0047 159.51 16.0047C160.138 16.0047 160.565 15.662 160.565 15.1964C160.565 14.8203 160.329 14.5831 159.848 14.4653L159.447 14.3669C159.127 14.2878 158.983 14.1806 158.983 13.9733C158.983 13.7413 159.229 13.5726 159.559 13.5726C159.921 13.5726 160.071 13.7729 160.143 13.9592L160.515 13.8538ZM161.491 15.9766C161.665 15.9766 161.807 15.8343 161.807 15.6603C161.807 15.4863 161.665 15.344 161.491 15.344C161.317 15.344 161.175 15.4863 161.175 15.6603C161.175 15.8343 161.317 15.9766 161.491 15.9766Z" fill="#E0E3FF"/>
<path d="M192.163 4.91049L191.763 4.51074L190.178 6.09557L188.593 4.51074L188.193 4.91049L189.778 6.49532L188.193 8.08015L188.593 8.4799L190.178 6.89507L191.763 8.4799L192.163 8.08015L190.578 6.49532L192.163 4.91049Z" fill="#6DAEFF"/>
<defs>
<filter id="filter0_b" x="100.794" y="-2.47428" width="97.734" height="26.5985" filterUnits="userSpaceOnUse" color-interpolation-filters="sRGB">
<feFlood flood-opacity="0" result="BackgroundImageFix"/>
<feGaussianBlur in="BackgroundImage" stdDeviation="1.23714"/>
<feComposite in2="SourceAlpha" operator="in" result="effect1_backgroundBlur"/>
<feBlend mode="normal" in="SourceGraphic" in2="effect1_backgroundBlur" result="shape"/>
</filter>
</defs>
</svg>
