<svg width="498" height="430" viewBox="0 0 498 430" fill="none" xmlns="http://www.w3.org/2000/svg">
<path d="M168.5 171V273.5H371.5V297.5V351" stroke="white" stroke-dasharray="7 7"/>
<rect x="167.5" y="1.5" width="330" height="213" stroke="#797979"/>
<rect x="167.5" y="1.5" width="330" height="41" stroke="#797979"/>
<rect x="167.5" y="42.5" width="330" height="43" stroke="#797979"/>
<rect x="167.5" y="85.5" width="330" height="43" stroke="#797979"/>
<rect x="167.5" y="128.5" width="330" height="43" stroke="#797979"/>
<rect x="167.5" y="171.5" width="330" height="43" stroke="#797979"/>
<line x1="194.5" y1="1" x2="194.5" y2="216" stroke="#797979"/>
<line x1="238.5" y1="1" x2="238.5" y2="216" stroke="#797979"/>
<line x1="282.5" y1="1" x2="282.5" y2="216" stroke="#797979"/>
<line x1="326.5" y1="1" x2="326.5" y2="216" stroke="#797979"/>
<line x1="370.5" y1="1" x2="370.5" y2="216" stroke="#797979"/>
<line x1="414.5" y1="1" x2="414.5" y2="216" stroke="#797979"/>
<line x1="458.5" y1="1" x2="458.5" y2="216" stroke="#797979"/>
<path d="M101.354 84.8628C101.549 84.6676 101.549 84.351 101.354 84.1557L98.1716 80.9737C97.9763 80.7785 97.6597 80.7785 97.4645 80.9737C97.2692 81.169 97.2692 81.4856 97.4645 81.6808L100.293 84.5093L97.4645 87.3377C97.2692 87.533 97.2692 87.8495 97.4645 88.0448C97.6597 88.2401 97.9763 88.2401 98.1716 88.0448L101.354 84.8628ZM82.5 84.5093H82V85.0093H82.5V84.5093ZM82.5 1H83V0.5H82.5V1ZM53.5 1V0.5H53V1H53.5ZM53.1464 312.354C53.3417 312.549 53.6583 312.549 53.8536 312.354L57.0355 309.172C57.2308 308.976 57.2308 308.66 57.0355 308.464C56.8403 308.269 56.5237 308.269 56.3284 308.464L53.5 311.293L50.6716 308.464C50.4763 308.269 50.1597 308.269 49.9645 308.464C49.7692 308.66 49.7692 308.976 49.9645 309.172L53.1464 312.354ZM101 84.0093H82.5V85.0093H101V84.0093ZM83 84.5093V1H82V84.5093H83ZM82.5 0.5H53.5V1.5H82.5V0.5ZM53 1V312H54V1H53Z" fill="white"/>
<path d="M372 327L422 427H322L372 327Z" fill="#0ACF83"/>
<path d="M422 42.7633H279M279 42.7633L320.02 2M279 42.7633L320.02 85" stroke="white" stroke-width="4"/>
<rect x="420" y="7" width="72" height="72" fill="#FFE600"/>
<path fill-rule="evenodd" clip-rule="evenodd" d="M0 373.368L22.6362 350.731L48.0396 376.135L25.4034 398.771L0 373.368ZM30.3531 403.721L53.3675 426.735L76.0038 404.099L52.9894 381.084L30.3531 403.721ZM57.9391 376.135L80.9535 399.149L106.735 373.368L83.7207 350.353L57.9391 376.135ZM78.7709 345.403L53.3675 320L27.586 345.782L52.9894 371.185L78.7709 345.403Z" fill="#892CFF"/>
<path d="M111 374L116 376.887V371.113L111 374ZM273.223 374H273.723V373.5H273.223V374ZM273.223 427H272.723V427.5H273.223V427ZM310 427L305 424.113V429.887L310 427ZM113.967 374.5H115.946V373.5H113.967V374.5ZM117.924 374.5H119.902V373.5H117.924V374.5ZM121.881 374.5H123.859V373.5H121.881V374.5ZM125.837 374.5H127.816V373.5H125.837V374.5ZM129.794 374.5H131.772V373.5H129.794V374.5ZM133.751 374.5H135.729V373.5H133.751V374.5ZM137.707 374.5H139.686V373.5H137.707V374.5ZM141.664 374.5H143.642V373.5H141.664V374.5ZM145.621 374.5H147.599V373.5H145.621V374.5ZM149.577 374.5H151.556V373.5H149.577V374.5ZM153.534 374.5H155.512V373.5H153.534V374.5ZM157.491 374.5H159.469V373.5H157.491V374.5ZM161.447 374.5H163.426V373.5H161.447V374.5ZM165.404 374.5H167.382V373.5H165.404V374.5ZM169.361 374.5H171.339V373.5H169.361V374.5ZM173.317 374.5H175.296V373.5H173.317V374.5ZM177.274 374.5H179.252V373.5H177.274V374.5ZM181.231 374.5H183.209V373.5H181.231V374.5ZM185.187 374.5H187.166V373.5H185.187V374.5ZM189.144 374.5H191.122V373.5H189.144V374.5ZM193.101 374.5H195.079V373.5H193.101V374.5ZM197.057 374.5H199.035V373.5H197.057V374.5ZM201.014 374.5H202.992V373.5H201.014V374.5ZM204.97 374.5H206.949V373.5H204.97V374.5ZM208.927 374.5H210.905V373.5H208.927V374.5ZM212.884 374.5H214.862V373.5H212.884V374.5ZM216.84 374.5H218.819V373.5H216.84V374.5ZM220.797 374.5H222.775V373.5H220.797V374.5ZM224.754 374.5H226.732V373.5H224.754V374.5ZM228.71 374.5H230.689V373.5H228.71V374.5ZM232.667 374.5H234.645V373.5H232.667V374.5ZM236.624 374.5H238.602V373.5H236.624V374.5ZM240.58 374.5H242.559V373.5H240.58V374.5ZM244.537 374.5H246.515V373.5H244.537V374.5ZM248.494 374.5H250.472V373.5H248.494V374.5ZM252.45 374.5H254.429V373.5H252.45V374.5ZM256.407 374.5H258.385V373.5H256.407V374.5ZM260.364 374.5H262.342V373.5H260.364V374.5ZM264.32 374.5H266.299V373.5H264.32V374.5ZM268.277 374.5H270.255V373.5H268.277V374.5ZM272.234 374.5H273.223V373.5H272.234V374.5ZM272.723 374V375.019H273.723V374H272.723ZM272.723 377.058V379.096H273.723V377.058H272.723ZM272.723 381.135V383.173H273.723V381.135H272.723ZM272.723 385.212V387.25H273.723V385.212H272.723ZM272.723 389.288V391.327H273.723V389.288H272.723ZM272.723 393.365V395.404H273.723V393.365H272.723ZM272.723 397.442V399.481H273.723V397.442H272.723ZM272.723 401.519V403.558H273.723V401.519H272.723ZM272.723 405.596V407.635H273.723V405.596H272.723ZM272.723 409.673V411.712H273.723V409.673H272.723ZM272.723 413.75V415.788H273.723V413.75H272.723ZM272.723 417.827V419.865H273.723V417.827H272.723ZM272.723 421.904V423.942H273.723V421.904H272.723ZM272.723 425.981V427H273.723V425.981H272.723ZM273.223 427.5H274.244V426.5H273.223V427.5ZM276.288 427.5H278.331V426.5H276.288V427.5ZM280.374 427.5H282.417V426.5H280.374V427.5ZM284.46 427.5H286.503V426.5H284.46V427.5ZM288.547 427.5H290.59V426.5H288.547V427.5ZM292.633 427.5H294.676V426.5H292.633V427.5ZM296.719 427.5H298.763V426.5H296.719V427.5ZM300.806 427.5H302.849V426.5H300.806V427.5ZM304.892 427.5H306.935V426.5H304.892V427.5Z" fill="white"/>
<circle cx="172" cy="172" r="66" fill="#FF6EF1"/>
<path d="M237 106C237 88.4957 230.046 71.7084 217.669 59.331C205.292 46.9536 188.504 40 171 40C153.496 40 136.708 46.9535 124.331 59.3309C111.954 71.7083 105 88.4957 105 106L171 106H237Z" fill="#FFB46E"/>
</svg>
