<svg width="40" height="40" viewBox="0 0 40 40" fill="none" xmlns="http://www.w3.org/2000/svg">
<rect width="40" height="40" rx="4" fill="black"/>
<path d="M20 20C20 18.067 21.567 16.5 23.5 16.5C25.433 16.5 27 18.067 27 20C27 21.933 25.433 23.5 23.5 23.5C21.567 23.5 20 21.933 20 20Z" fill="#1ABCFE"/>
<path d="M13 27C13 25.067 14.567 23.5 16.5 23.5H20V27C20 28.933 18.433 30.5 16.5 30.5C14.567 30.5 13 28.933 13 27Z" fill="#0ACF83"/>
<path d="M20 9.5V16.5H23.5C25.433 16.5 27 14.933 27 13C27 11.067 25.433 9.5 23.5 9.5H20Z" fill="#FF7262"/>
<path d="M13 13C13 14.933 14.567 16.5 16.5 16.5H20V9.5H16.5C14.567 9.5 13 11.067 13 13Z" fill="#F24E1E"/>
<path d="M13 20C13 21.933 14.567 23.5 16.5 23.5H20V16.5H16.5C14.567 16.5 13 18.067 13 20Z" fill="#A259FF"/>
</svg>
