<svg width="40" height="40" viewBox="0 0 40 40" fill="none" xmlns="http://www.w3.org/2000/svg">
<rect width="40" height="40" rx="4" fill="#5E6AD2"/>
<g clip-path="url(#clip0)">
<path d="M10.126 21.6875L18.3128 29.8743C14.1321 29.1677 10.8327 25.8682 10.126 21.6875Z" fill="white"/>
<path d="M10 19.4648L20.5354 30.0001C21.1619 29.9667 21.7732 29.8755 22.3639 29.732L10.2681 17.6362C10.1246 18.227 10.0335 18.8382 10 19.4648Z" fill="white"/>
<path d="M10.7925 16.0634L23.9362 29.2071C24.4149 29.0017 24.8744 28.7599 25.3111 28.4854L11.5142 14.6885C11.2397 15.1252 10.9979 15.5847 10.7925 16.0634Z" fill="white"/>
<path d="M12.4048 13.4827C14.24 11.3503 16.9588 10 19.9929 10C25.5197 10 30.0001 14.4804 30.0001 20.0072C30.0001 23.0413 28.6498 25.7601 26.5174 27.5953L12.4048 13.4827Z" fill="white"/>
</g>
<defs>
<clipPath id="clip0">
<rect width="20" height="20" fill="white" transform="translate(10 10)"/>
</clipPath>
</defs>
</svg>
