<svg width="195" height="120" viewBox="0 0 195 120" fill="none" xmlns="http://www.w3.org/2000/svg">
<path d="M97.6031 45.322V61.1601M97.6031 61.1601H78.4162M97.6031 61.1601H115.222M41.6108 73.3908V61.1601H78.4162M115.222 61.1601V73.3908M115.222 61.1601H153.952V73.3908M78.4162 61.1601V73.3908" stroke="#46464F" stroke-width="0.452989" stroke-miterlimit="16" stroke-linecap="round" stroke-dasharray="0.91 0.91"/>
<rect x="26.4082" y="87.0701" width="27.6323" height="31.7092" rx="1.42747" fill="#46464F"/>
<rect x="63.8794" y="87.0701" width="27.6323" height="31.7092" rx="1.42747" fill="#46464F"/>
<rect x="102.064" y="87.0701" width="27.6323" height="31.7092" rx="1.42747" fill="#46464F"/>
<rect x="139.892" y="87.0701" width="27.6323" height="31.7092" rx="1.42747" fill="#46464F"/>
<g filter="url(#filter0_b)">
<rect x="50.897" y="16.0876" width="94.6748" height="22.1965" rx="3.62391" fill="#A259FF"/>
<rect x="51.0754" y="16.2661" width="94.3179" height="21.8396" rx="3.44548" stroke="#A259FF" stroke-width="0.356867"/>
</g>
<path d="M88.1887 26.1445H89.2569C89.2414 25.205 88.4693 24.5564 87.2956 24.5564C86.14 24.5564 85.2932 25.1947 85.2983 26.1522C85.2958 26.9295 85.844 27.3748 86.7345 27.5884L87.3085 27.7325C87.8824 27.8715 88.2016 28.0362 88.2042 28.3914C88.2016 28.7775 87.8361 29.04 87.2699 29.04C86.6908 29.04 86.2738 28.7723 86.2378 28.2447H85.1594C85.1877 29.3849 86.0036 29.9743 87.2827 29.9743C88.5696 29.9743 89.3263 29.3592 89.3289 28.394C89.3263 27.5163 88.6649 27.0505 87.7486 26.8446L87.275 26.7313C86.8169 26.6258 86.4334 26.4559 86.4411 26.0776C86.4411 25.7378 86.7422 25.4882 87.2879 25.4882C87.8207 25.4882 88.1475 25.7301 88.1887 26.1445ZM90.0579 29.8997H91.1544V25.9463H90.0579V29.8997ZM90.6087 25.4367C90.9356 25.4367 91.2033 25.187 91.2033 24.8807C91.2033 24.577 90.9356 24.3274 90.6087 24.3274C90.2844 24.3274 90.0168 24.577 90.0168 24.8807C90.0168 25.187 90.2844 25.4367 90.6087 25.4367ZM93.8138 31.4645C94.9437 31.4645 95.7467 30.9498 95.7467 29.9383V25.9463H94.658V26.6103H94.6168C94.4701 26.2886 94.1484 25.8948 93.4869 25.8948C92.6195 25.8948 91.886 26.5692 91.886 27.9153C91.886 29.2305 92.5989 29.843 93.4895 29.843C94.1201 29.843 94.4727 29.5265 94.6168 29.1996H94.6631V29.9228C94.6631 30.4659 94.3157 30.6769 93.8395 30.6769C93.3556 30.6769 93.1111 30.4659 93.021 30.2265L92.007 30.3629C92.1382 30.9858 92.7482 31.4645 93.8138 31.4645ZM93.8369 29.0194C93.299 29.0194 93.0056 28.5922 93.0056 27.9101C93.0056 27.2383 93.2939 26.7673 93.8369 26.7673C94.3697 26.7673 94.6683 27.2178 94.6683 27.9101C94.6683 28.6076 94.3646 29.0194 93.8369 29.0194ZM97.7157 27.6141C97.7182 27.1045 98.0219 26.8059 98.4646 26.8059C98.9048 26.8059 99.1699 27.0942 99.1673 27.5781V29.8997H100.264V27.3825C100.264 26.4611 99.7232 25.8948 98.8996 25.8948C98.3128 25.8948 97.8881 26.1831 97.7105 26.6438H97.6642V25.9463H96.6192V29.8997H97.7157V27.6141ZM105.341 28.2164C105.343 28.7466 104.98 29.0246 104.586 29.0246C104.172 29.0246 103.904 28.7337 103.902 28.2679V25.9463H102.805V28.4635C102.808 29.3875 103.348 29.9511 104.144 29.9511C104.738 29.9511 105.166 29.6449 105.343 29.1816H105.384V29.8997H106.437V25.9463H105.341V28.2164ZM107.314 31.3822H108.41V29.2665H108.444C108.596 29.5959 108.928 29.964 109.566 29.964C110.467 29.964 111.17 29.2511 111.17 27.9281C111.17 26.5692 110.436 25.8948 109.569 25.8948C108.907 25.8948 108.591 26.2886 108.444 26.6103H108.395V25.9463H107.314V31.3822ZM108.387 27.923C108.387 27.2178 108.686 26.7673 109.219 26.7673C109.762 26.7673 110.05 27.2383 110.05 27.923C110.05 28.6128 109.757 29.0915 109.219 29.0915C108.691 29.0915 108.387 28.6282 108.387 27.923Z" fill="white"/>
<path d="M81.051 6.07056H81.5993V4.79313H82.3444C83.1872 4.79313 83.6041 4.28394 83.6041 3.61329C83.6041 2.94442 83.1907 2.437 82.3462 2.437H81.051V6.07056ZM81.5993 4.3283V2.90716H82.2877C82.8306 2.90716 83.0523 3.20168 83.0523 3.61329C83.0523 4.02491 82.8306 4.3283 82.2948 4.3283H81.5993ZM84.2468 6.07056H84.795V4.69555H85.5402C85.5526 4.69555 85.5633 4.69555 85.5757 4.69555L86.3138 6.07056H86.9383L86.1328 4.59975C86.5781 4.43475 86.7999 4.06394 86.7999 3.57604C86.7999 2.90716 86.3847 2.437 85.542 2.437H84.2468V6.07056ZM84.795 4.22362V2.90716H85.4834C86.0246 2.90716 86.2481 3.16442 86.2481 3.57604C86.2481 3.98588 86.0246 4.22362 85.4905 4.22362H84.795ZM88.0152 2.437H87.467V6.07056H88.0152V2.437ZM88.8136 2.437V6.07056H89.3352V3.43942H89.3689L90.4405 6.06523H90.8734L91.9451 3.4412H91.9788V6.07056H92.5004V2.437H91.8351L90.6783 5.26152H90.6357L89.4789 2.437H88.8136ZM93.6044 6.07056L93.9379 5.10894H95.3573L95.6891 6.07056H96.271L94.9634 2.437H94.33L93.0224 6.07056H93.6044ZM94.0976 4.64765L94.6334 3.097H94.6618L95.1976 4.64765H94.0976ZM96.7957 6.07056H97.3439V4.69555H98.0891C98.1015 4.69555 98.1122 4.69555 98.1246 4.69555L98.8627 6.07056H99.4872L98.6817 4.59975C99.127 4.43475 99.3488 4.06394 99.3488 3.57604C99.3488 2.90716 98.9336 2.437 98.0909 2.437H96.7957V6.07056ZM97.3439 4.22362V2.90716H98.0323C98.5735 2.90716 98.797 3.16442 98.797 3.57604C98.797 3.98588 98.5735 4.22362 98.0394 4.22362H97.3439ZM99.6038 2.437L100.922 4.6441V6.07056H101.469V4.6441L102.787 2.437H102.164L101.215 4.08878H101.176L100.227 2.437H99.6038ZM104.646 2.26668H104.172L103.001 6.61701H103.475L104.646 2.26668ZM108.157 3.61862C108.033 2.84152 107.424 2.38732 106.656 2.38732C105.715 2.38732 105.022 3.09168 105.022 4.25378C105.022 5.41588 105.712 6.12023 106.656 6.12023C107.454 6.12023 108.038 5.61991 108.157 4.90136L107.603 4.89959C107.509 5.36443 107.119 5.61991 106.659 5.61991C106.037 5.61991 105.566 5.14265 105.566 4.25378C105.566 3.372 106.035 2.88765 106.661 2.88765C107.124 2.88765 107.513 3.14845 107.603 3.61862H108.157ZM108.634 2.90894H109.766V6.07056H110.312V2.90894H111.446V2.437H108.634V2.90894ZM111.94 6.07056L112.273 5.10894H113.693L114.025 6.07056H114.606L113.299 2.437H112.665L111.358 6.07056H111.94ZM112.433 4.64765L112.969 3.097H112.997L113.533 4.64765H112.433Z" fill="#787882"/>
<path d="M28.5345 82.1538H29.0045V80.7958H30.5571V82.1538H31.0286V79.0393H30.5571V80.3928H29.0045V79.0393H28.5345V82.1538ZM34.4183 80.5966C34.4183 79.6005 33.8222 78.9968 33.0162 78.9968C32.2071 78.9968 31.6125 79.6005 31.6125 80.5966C31.6125 81.5911 32.2071 82.1964 33.0162 82.1964C33.8222 82.1964 34.4183 81.5927 34.4183 80.5966ZM33.9529 80.5966C33.9529 81.3554 33.5515 81.7675 33.0162 81.7675C32.4793 81.7675 32.0794 81.3554 32.0794 80.5966C32.0794 79.8377 32.4793 79.4256 33.0162 79.4256C33.5515 79.4256 33.9529 79.8377 33.9529 80.5966ZM35.0042 79.0393V82.1538H35.4513V79.8986H35.4802L36.3987 82.1492H36.7697L37.6883 79.9001H37.7172V82.1538H38.1643V79.0393H37.594L36.6025 81.4604H36.566L35.5744 79.0393H35.0042ZM38.8474 82.1538H40.8183V81.7493H39.3174V80.7958H40.6982V80.3928H39.3174V79.4438H40.8001V79.0393H38.8474V82.1538ZM41.4278 82.1538H41.8977V81.0589H42.5364C43.2587 81.0589 43.6161 80.6224 43.6161 80.0476C43.6161 79.4743 43.2618 79.0393 42.5379 79.0393H41.4278V82.1538ZM41.8977 80.6604V79.4423H42.4877C42.9531 79.4423 43.1432 79.6948 43.1432 80.0476C43.1432 80.4004 42.9531 80.6604 42.4938 80.6604H41.8977ZM44.0997 82.1538L44.3856 81.3296H45.6022L45.8866 82.1538H46.3854L45.2646 79.0393H44.7217L43.6009 82.1538H44.0997ZM44.5225 80.9342L44.9817 79.605H45.0061L45.4653 80.9342H44.5225ZM48.7965 80.0233H49.2786C49.1737 79.4165 48.6551 78.9968 47.9829 78.9968C47.1769 78.9968 46.5884 79.6035 46.5884 80.5981C46.5884 81.5835 47.1602 82.1964 48.0042 82.1964C48.76 82.1964 49.2999 81.7006 49.2999 80.9144V80.5601H48.0757V80.9479H48.8452C48.8345 81.4497 48.503 81.7675 48.0042 81.7675C47.4552 81.7675 47.0553 81.3524 47.0553 80.595C47.0553 79.8408 47.4583 79.4256 47.986 79.4256C48.3996 79.4256 48.6794 79.6537 48.7965 80.0233ZM49.8964 82.1538H51.8673V81.7493H50.3663V80.7958H51.7471V80.3928H50.3663V79.4438H51.849V79.0393H49.8964V82.1538Z" fill="#787882"/>
<path d="M70.9163 79.8575H71.3695C71.3558 79.3587 70.9148 78.9968 70.2822 78.9968C69.6571 78.9968 69.1781 79.3541 69.1781 79.8909C69.1781 80.3244 69.4883 80.5783 69.9887 80.7137L70.3567 80.814C70.6897 80.9022 70.9467 81.0117 70.9467 81.2885C70.9467 81.5927 70.6563 81.7934 70.2563 81.7934C69.8944 81.7934 69.5933 81.6322 69.5659 81.2931H69.0945C69.1249 81.8573 69.5613 82.2055 70.2594 82.2055C70.9908 82.2055 71.4121 81.8208 71.4121 81.2931C71.4121 80.7319 70.9118 80.5145 70.5164 80.4171L70.2122 80.338C69.9689 80.2757 69.645 80.1616 69.6465 79.8636C69.6465 79.599 69.8883 79.4028 70.2715 79.4028C70.6289 79.4028 70.8829 79.5701 70.9163 79.8575ZM72.4435 79.0393H71.9736V82.1538H72.4435V79.0393ZM75.2356 80.0233H75.7177C75.6127 79.4165 75.0942 78.9968 74.422 78.9968C73.616 78.9968 73.0275 79.6035 73.0275 80.5981C73.0275 81.5835 73.5993 82.1964 74.4433 82.1964C75.1991 82.1964 75.739 81.7006 75.739 80.9144V80.5601H74.5148V80.9479H75.2843C75.2736 81.4497 74.9421 81.7675 74.4433 81.7675C73.8943 81.7675 73.4944 81.3524 73.4944 80.595C73.4944 79.8408 73.8974 79.4256 74.425 79.4256C74.8387 79.4256 75.1185 79.6537 75.2356 80.0233ZM78.8493 79.0393H78.3839V81.3265H78.355L76.7704 79.0393H76.3355V82.1538H76.8054V79.8697H76.8343L78.4174 82.1538H78.8493V79.0393ZM80.8745 80.4004H79.4937V80.7943H80.8745V80.4004ZM83.5198 79.0393V81.0498C83.5198 81.4725 83.2279 81.7767 82.7534 81.7767C82.2804 81.7767 81.9869 81.4725 81.9869 81.0498V79.0393H81.517V81.0878C81.517 81.7417 82.0067 82.2055 82.7534 82.2055C83.5001 82.2055 83.9913 81.7417 83.9913 81.0878V79.0393H83.5198ZM84.6745 82.1538H85.1444V81.0589H85.7831C86.5054 81.0589 86.8628 80.6224 86.8628 80.0476C86.8628 79.4743 86.5085 79.0393 85.7846 79.0393H84.6745V82.1538ZM85.1444 80.6604V79.4423H85.7344C86.1998 79.4423 86.3899 79.6948 86.3899 80.0476C86.3899 80.4004 86.1998 80.6604 85.7405 80.6604H85.1444Z" fill="#787882"/>
<path d="M107.402 82.1538H107.872V81.0589H108.511C109.233 81.0589 109.591 80.6224 109.591 80.0476C109.591 79.4743 109.236 79.0393 108.512 79.0393H107.402V82.1538ZM107.872 80.6604V79.4423H108.462C108.928 79.4423 109.118 79.6948 109.118 80.0476C109.118 80.4004 108.928 80.6604 108.468 80.6604H107.872ZM110.141 82.1538H110.611V80.9752H111.25C111.261 80.9752 111.27 80.9752 111.28 80.9752L111.913 82.1538H112.448L111.758 80.8931C112.14 80.7517 112.33 80.4339 112.33 80.0156C112.33 79.4423 111.974 79.0393 111.252 79.0393H110.141V82.1538ZM110.611 80.5707V79.4423H111.201C111.665 79.4423 111.857 79.6628 111.857 80.0156C111.857 80.3669 111.665 80.5707 111.207 80.5707H110.611ZM113.372 79.0393H112.902V82.1538H113.372V79.0393ZM116.643 80.0521C116.536 79.3861 116.015 78.9968 115.356 78.9968C114.55 78.9968 113.955 79.6005 113.955 80.5966C113.955 81.5927 114.547 82.1964 115.356 82.1964C116.04 82.1964 116.541 81.7675 116.643 81.1516L116.168 81.1501C116.088 81.5486 115.753 81.7675 115.359 81.7675C114.825 81.7675 114.422 81.3585 114.422 80.5966C114.422 79.8408 114.824 79.4256 115.361 79.4256C115.758 79.4256 116.091 79.6491 116.168 80.0521H116.643ZM117.675 79.0393H117.205V82.1538H117.675V79.0393ZM120.873 79.0393H120.408V81.3265H120.379L118.794 79.0393H118.359V82.1538H118.829V79.8697H118.858L120.441 82.1538H120.873V79.0393ZM123.666 80.0233H124.148C124.043 79.4165 123.525 78.9968 122.853 78.9968C122.047 78.9968 121.458 79.6035 121.458 80.5981C121.458 81.5835 122.03 82.1964 122.874 82.1964C123.63 82.1964 124.17 81.7006 124.17 80.9144V80.5601H122.945V80.9479H123.715C123.704 81.4497 123.373 81.7675 122.874 81.7675C122.325 81.7675 121.925 81.3524 121.925 80.595C121.925 79.8408 122.328 79.4256 122.856 79.4256C123.269 79.4256 123.549 79.6537 123.666 80.0233Z" fill="#787882"/>
<path d="M141.599 82.1538C142.548 82.1538 143.097 81.5653 143.097 80.592C143.097 79.6233 142.548 79.0393 141.631 79.0393H140.591V82.1538H141.599ZM141.061 81.7432V79.4499H141.602C142.284 79.4499 142.635 79.8575 142.635 80.592C142.635 81.3296 142.284 81.7432 141.574 81.7432H141.061ZM143.79 82.1538L144.076 81.3296H145.293L145.577 82.1538H146.076L144.955 79.0393H144.412L143.291 82.1538H143.79ZM144.213 80.9342L144.672 79.605H144.696L145.156 80.9342H144.213ZM148.199 79.8575H148.652C148.639 79.3587 148.198 78.9968 147.565 78.9968C146.94 78.9968 146.461 79.3541 146.461 79.8909C146.461 80.3244 146.771 80.5783 147.271 80.7137L147.639 80.814C147.972 80.9022 148.229 81.0117 148.229 81.2885C148.229 81.5927 147.939 81.7934 147.539 81.7934C147.177 81.7934 146.876 81.6322 146.849 81.2931H146.377C146.408 81.8573 146.844 82.2055 147.542 82.2055C148.274 82.2055 148.695 81.8208 148.695 81.2931C148.695 80.7319 148.195 80.5145 147.799 80.4171L147.495 80.338C147.252 80.2757 146.928 80.1616 146.929 79.8636C146.929 79.599 147.171 79.4028 147.554 79.4028C147.912 79.4028 148.166 79.5701 148.199 79.8575ZM149.256 82.1538H149.726V80.7958H151.279V82.1538H151.75V79.0393H151.279V80.3928H149.726V79.0393H149.256V82.1538ZM152.435 82.1538H153.628C154.352 82.1538 154.679 81.7934 154.679 81.3159C154.679 80.8338 154.342 80.5616 154.033 80.5449V80.5145C154.319 80.4415 154.558 80.2468 154.558 79.8575C154.558 79.3967 154.238 79.0393 153.575 79.0393H152.435V82.1538ZM152.905 81.7508V80.7532H153.6C153.977 80.7532 154.212 80.9965 154.212 81.2931C154.212 81.5546 154.035 81.7508 153.583 81.7508H152.905ZM152.905 80.3867V79.4393H153.546C153.919 79.4393 154.097 79.6355 154.097 79.894C154.097 80.1951 153.851 80.3867 153.534 80.3867H152.905ZM157.942 80.5966C157.942 79.6005 157.346 78.9968 156.54 78.9968C155.731 78.9968 155.136 79.6005 155.136 80.5966C155.136 81.5911 155.731 82.1964 156.54 82.1964C157.346 82.1964 157.942 81.5927 157.942 80.5966ZM157.477 80.5966C157.477 81.3554 157.075 81.7675 156.54 81.7675C156.003 81.7675 155.603 81.3554 155.603 80.5966C155.603 79.8377 156.003 79.4256 156.54 79.4256C157.075 79.4256 157.477 79.8377 157.477 80.5966ZM158.636 82.1538L158.922 81.3296H160.139L160.423 82.1538H160.922L159.801 79.0393H159.258L158.137 82.1538H158.636ZM159.059 80.9342L159.518 79.605H159.543L160.002 80.9342H159.059ZM161.372 82.1538H161.842V80.9752H162.48C162.491 80.9752 162.5 80.9752 162.511 80.9752L163.143 82.1538H163.679L162.988 80.8931C163.37 80.7517 163.56 80.4339 163.56 80.0156C163.56 79.4423 163.204 79.0393 162.482 79.0393H161.372V82.1538ZM161.842 80.5707V79.4423H162.432C162.896 79.4423 163.087 79.6628 163.087 80.0156C163.087 80.3669 162.896 80.5707 162.438 80.5707H161.842ZM165.14 82.1538C166.089 82.1538 166.638 81.5653 166.638 80.592C166.638 79.6233 166.089 79.0393 165.172 79.0393H164.132V82.1538H165.14ZM164.602 81.7432V79.4499H165.143C165.824 79.4499 166.176 79.8575 166.176 80.592C166.176 81.3296 165.824 81.7432 165.114 81.7432H164.602Z" fill="#787882"/>
<rect x="44.5552" y="11.5579" width="106.905" height="31.7092" rx="3.62391" stroke="#933FFF" stroke-opacity="0.27" stroke-width="1.35897"/>
<rect x="45.0083" y="12.0107" width="105.999" height="30.8033" rx="3.62391" stroke="#AD00FF" stroke-width="0.452989"/>
<defs>
<filter id="filter0_b" x="15.2103" y="-19.5991" width="166.048" height="93.5699" filterUnits="userSpaceOnUse" color-interpolation-filters="sRGB">
<feFlood flood-opacity="0" result="BackgroundImageFix"/>
<feGaussianBlur in="BackgroundImage" stdDeviation="17.8434"/>
<feComposite in2="SourceAlpha" operator="in" result="effect1_backgroundBlur"/>
<feBlend mode="normal" in="SourceGraphic" in2="effect1_backgroundBlur" result="shape"/>
</filter>
</defs>
</svg>
