<svg width="40" height="40" viewBox="0 0 40 40" fill="none" xmlns="http://www.w3.org/2000/svg">
<rect width="40" height="40" rx="4" fill="#5D1E66"/>
<g clip-path="url(#clip0)">
<path fill-rule="evenodd" clip-rule="evenodd" d="M17.3324 10C16.2268 10.0008 15.3321 10.9271 15.3329 12.0685C15.3321 13.21 16.2277 14.1362 17.3332 14.1371H19.3336V12.0694C19.3344 10.928 18.4388 10.0017 17.3324 10C17.3332 10 17.3332 10 17.3324 10V10ZM17.3324 15.5172H11.9998C10.8943 15.5181 9.9987 16.4444 9.99951 17.5858C9.99788 18.7272 10.8935 19.6535 11.999 19.6552H17.3324C18.438 19.6543 19.3336 18.728 19.3327 17.5866C19.3336 16.4444 18.438 15.5181 17.3324 15.5172Z" fill="#36C5F0"/>
<path fill-rule="evenodd" clip-rule="evenodd" d="M30.0002 17.5858C30.001 16.4444 29.1055 15.5181 27.9999 15.5172C26.8943 15.5181 25.9988 16.4444 25.9996 17.5858V19.6552H27.9999C29.1055 19.6543 30.001 18.728 30.0002 17.5858ZM24.6668 17.5858V12.0685C24.6677 10.928 23.7729 10.0017 22.6673 10C21.5617 10.0008 20.6662 10.9271 20.667 12.0685V17.5858C20.6654 18.7272 21.5609 19.6535 22.6665 19.6552C23.7721 19.6543 24.6677 18.728 24.6668 17.5858Z" fill="#2EB67D"/>
<path fill-rule="evenodd" clip-rule="evenodd" d="M22.6663 30.6897C23.7719 30.6889 24.6675 29.7626 24.6667 28.6212C24.6675 27.4798 23.7719 26.5535 22.6663 26.5526H20.666V28.6212C20.6652 29.7617 21.5608 30.688 22.6663 30.6897ZM22.6663 25.1716H27.9997C29.1053 25.1708 30.0009 24.2445 30.0001 23.1031C30.0017 21.9617 29.1061 21.0354 28.0006 21.0337H22.6672C21.5616 21.0345 20.666 21.9608 20.6668 23.1022C20.666 24.2445 21.5608 25.1708 22.6663 25.1716Z" fill="#ECB22E"/>
<path fill-rule="evenodd" clip-rule="evenodd" d="M10 23.1027C9.99918 24.2441 10.8948 25.1704 12.0003 25.1713C13.1059 25.1704 14.0015 24.2441 14.0007 23.1027V21.0342H12.0003C10.8948 21.035 9.99918 21.9613 10 23.1027ZM15.3334 23.1027V28.62C15.3318 29.7614 16.2273 30.6877 17.3329 30.6894C18.4385 30.6885 19.334 29.7622 19.3332 28.6208V23.1044C19.3349 21.963 18.4393 21.0367 17.3337 21.035C16.2273 21.035 15.3326 21.9613 15.3334 23.1027C15.3334 23.1027 15.3334 23.1036 15.3334 23.1027Z" fill="#E01E5A"/>
</g>
<defs>
<clipPath id="clip0">
<rect width="20" height="20.6897" fill="white" transform="translate(10 10)"/>
</clipPath>
</defs>
</svg>
