<svg width="24" height="24" viewBox="0 0 24 24" fill="none" xmlns="http://www.w3.org/2000/svg">
<rect width="24" height="24" rx="4" fill="#FFF1F1"/>
<path d="M9.71662 10.7266H10.9844C10.9595 9.49787 9.91193 8.62784 8.36364 8.62784C6.83665 8.62784 5.68963 9.48722 5.69318 10.7727C5.69318 11.8168 6.43537 12.4169 7.6321 12.7259L8.45952 12.9389C9.24432 13.1378 9.76278 13.3828 9.76634 13.9474C9.76278 14.5689 9.1733 14.9844 8.31392 14.9844C7.49006 14.9844 6.85085 14.6151 6.79759 13.8516H5.50142C5.55469 15.2969 6.63068 16.1101 8.32457 16.1101C10.0682 16.1101 11.0803 15.2401 11.0838 13.9581C11.0803 12.6974 10.0398 12.1222 8.94602 11.8629L8.2642 11.6925C7.66761 11.5504 7.02131 11.2983 7.02841 10.6911C7.03196 10.1442 7.52202 9.7429 8.34588 9.7429C9.13068 9.7429 9.64915 10.1087 9.71662 10.7266ZM18.2349 8.72727H16.9245V13.6847H16.8606L13.4373 8.72727H12.2583V16H13.5758V11.0462H13.6362L17.063 16H18.2349V8.72727Z" fill="#BD123E"/>
</svg>
