<svg width="40" height="40" viewBox="0 0 40 40" fill="none" xmlns="http://www.w3.org/2000/svg">
<rect width="40" height="40" rx="4" fill="#18181A"/>
<path fill-rule="evenodd" clip-rule="evenodd" d="M20 10C14.475 10 10 14.475 10 20C10 24.425 12.8625 28.1625 16.8375 29.4875C17.3375 29.575 17.525 29.275 17.525 29.0125C17.525 28.775 17.5125 27.9875 17.5125 27.15C15 27.6125 14.35 26.5375 14.15 25.975C14.0375 25.6875 13.55 24.8 13.125 24.5625C12.775 24.375 12.275 23.9125 13.1125 23.9C13.9 23.8875 14.4625 24.625 14.65 24.925C15.55 26.4375 16.9875 26.0125 17.5625 25.75C17.65 25.1 17.9125 24.6625 18.2 24.4125C15.975 24.1625 13.65 23.3 13.65 19.475C13.65 18.3875 14.0375 17.4875 14.675 16.7875C14.575 16.5375 14.225 15.5125 14.775 14.1375C14.775 14.1375 15.6125 13.875 17.525 15.1625C18.325 14.9375 19.175 14.825 20.025 14.825C20.875 14.825 21.725 14.9375 22.525 15.1625C24.4375 13.8625 25.275 14.1375 25.275 14.1375C25.825 15.5125 25.475 16.5375 25.375 16.7875C26.0125 17.4875 26.4 18.375 26.4 19.475C26.4 23.3125 24.0625 24.1625 21.8375 24.4125C22.2 24.725 22.5125 25.325 22.5125 26.2625C22.5125 27.6 22.5 28.675 22.5 29.0125C22.5 29.275 22.6875 29.5875 23.1875 29.4875C25.1727 28.8173 26.8977 27.5415 28.1198 25.8395C29.3419 24.1376 29.9995 22.0953 30 20C30 14.475 25.525 10 20 10Z" fill="white"/>
</svg>
