<svg width="40" height="40" viewBox="0 0 40 40" fill="none" xmlns="http://www.w3.org/2000/svg">
<rect width="40" height="40" rx="4" fill="#FC2A73"/>
<g clip-path="url(#clip0)">
<path fill-rule="evenodd" clip-rule="evenodd" d="M23.2754 9.21095L23.1707 11.7042C23.1691 11.7425 23.181 11.7802 23.2045 11.8107C23.2601 11.8833 23.3646 11.8975 23.438 11.8425L24.4162 11.1078L25.2425 11.7522C25.2734 11.7763 25.312 11.7888 25.3514 11.7875C25.4434 11.7843 25.5154 11.7079 25.5122 11.6168L25.4226 9.0781L26.6494 9.00219C27.2652 8.96409 27.7957 9.42745 27.8342 10.0371C27.8356 10.0601 27.8363 10.0831 27.8363 10.1061V29.8939C27.8363 30.5048 27.3361 31 26.7191 31C26.7023 31 26.6856 30.9996 26.6689 30.9989L11.7556 30.3358C11.1747 30.31 10.711 29.8475 10.6892 29.2723L10.0008 11.113C9.97806 10.5133 10.4426 10.005 11.0476 9.96755L23.2754 9.21095ZM20.4304 17.2921C20.4304 17.7225 23.3583 17.5162 23.7514 17.214C23.7514 14.2835 22.1631 12.7435 19.2546 12.7435C16.3461 12.7435 14.7165 14.3074 14.7165 16.6532C14.7165 19.0033 16.5592 20.0275 18.1247 20.8976C19.2809 21.5403 20.286 22.099 20.286 23.0457C20.286 23.6712 19.9766 24.0426 19.2958 24.0426C18.4089 24.0426 18.0582 23.5942 18.0994 22.0694C18.0994 21.7386 14.7165 21.6355 14.6134 22.0694C14.3508 25.7645 16.6761 26.8303 19.3371 26.8303C21.9155 26.8303 23.937 25.4697 23.937 23.0066C23.937 20.4367 21.9904 19.4154 20.382 18.5716C19.2497 17.9776 18.2851 17.4715 18.2851 16.5751C18.2851 15.6954 18.9452 15.5781 19.3371 15.5781C19.7497 15.5781 20.4922 15.6501 20.4304 17.2921Z" fill="white"/>
</g>
<defs>
<clipPath id="clip0">
<rect width="20" height="22" fill="white" transform="translate(10 9)"/>
</clipPath>
</defs>
</svg>
