<svg width="24" height="24" viewBox="0 0 24 24" fill="none" xmlns="http://www.w3.org/2000/svg">
<rect width="24" height="24" rx="4" fill="black"/>
<path d="M12 12C12 10.6193 13.1193 9.5 14.5 9.5C15.8807 9.5 17 10.6193 17 12C17 13.3807 15.8807 14.5 14.5 14.5C13.1193 14.5 12 13.3807 12 12Z" fill="#1ABCFE"/>
<path d="M7 17C7 15.6193 8.11929 14.5 9.5 14.5H12V17C12 18.3807 10.8807 19.5 9.5 19.5C8.11929 19.5 7 18.3807 7 17Z" fill="#0ACF83"/>
<path d="M12 4.5V9.5H14.5C15.8807 9.5 17 8.38071 17 7C17 5.61929 15.8807 4.5 14.5 4.5H12Z" fill="#FF7262"/>
<path d="M7 7C7 8.38071 8.11929 9.5 9.5 9.5H12V4.5L9.5 4.5C8.11929 4.5 7 5.61929 7 7Z" fill="#F24E1E"/>
<path d="M7 12C7 13.3807 8.11929 14.5 9.5 14.5H12V9.5H9.5C8.11929 9.5 7 10.6193 7 12Z" fill="#A259FF"/>
</svg>
